nColumns=19
nRows=138
DataType=double
version=3
OpenSimVersion=4.1
endheader
time	ground_force_1_vx	ground_force_1_vy	ground_force_1_vz	ground_force_1_px	ground_force_1_py	ground_force_1_pz	ground_force_1_mx	ground_force_1_my	ground_force_1_mz	ground_force_2_vx	ground_force_2_vy	ground_force_2_vz	ground_force_2_px	ground_force_2_py	ground_force_2_pz	ground_force_2_mx	ground_force_2_my	ground_force_2_mz
0.98	0	0	0	0.873187	0	-0.230427	0	0	0	343.073	509.815	-106.171	0.341938	0	-0.383463	0	75.1597	0
0.985	0	0	0	0.901429	0	-0.231322	0	0	0	273.815	359.999	-51.5453	0.316877	0	-0.378361	0	27.6455	0
0.99	0	0	0	0.929739	0	-0.232105	0	0	0	193.55	228.218	-3.21235	0.31931	0	-0.370422	0	-15.2294	0
0.995	0	0	0	0.957878	0	-0.232509	0	0	0	121.092	119.28	15.9661	0.380509	0	-0.362085	0	-29.3559	0
1	0	0	0	0.986114	0	-0.233339	0	0	0	67.4905	44.2139	7.71773	0.379389	0	-0.361345	0	-19.4006	0
1.005	0	0	0	1.01372	0	-0.234223	0	0	0	0	0	0	0.362488	0	-0.362363	0	0	0
1.01	0	0	0	1.04099	0	-0.234544	0	0	0	0	0	0	0.346399	0	-0.364117	0	0	0
1.015	0	0	0	1.0675	0	-0.235085	0	0	0	0	0	0	0.330482	0	-0.365832	0	0	0
1.02	0	0	0	1.09331	0	-0.235347	0	0	0	0	0	0	0.31392	0	-0.367193	0	0	0
1.025	0	0	0	1.11798	0	-0.235361	0	0	0	0	0	0	0.297643	0	-0.368385	0	0	0
1.03	0	0	0	1.14125	0	-0.235146	0	0	0	0	0	0	0.283007	0	-0.368336	0	0	0
1.035	0	0	0	1.16331	0	-0.234622	0	0	0	0	0	0	0.267538	0	-0.365937	0	0	0
1.04	0	0	0	1.18406	0	-0.233602	0	0	0	0	0	0	0.250089	0	-0.364422	0	0	0
1.045	0	0	0	1.2031	0	-0.232843	0	0	0	0	0	0	0.234043	0	-0.361483	0	0	0
1.05	0	0	0	1.22045	0	-0.231752	0	0	0	0	0	0	0.220715	0	-0.358754	0	0	0
1.055	0	0	0	1.23568	0	-0.230342	0	0	0	0	0	0	0.208757	0	-0.355672	0	0	0
1.06	0	0	0	1.2486	0	-0.229013	0	0	0	0	0	0	0.197491	0	-0.352366	0	0	0
1.065	0	0	0	1.25903	0	-0.227232	0	0	0	0	0	0	0.187228	0	-0.349179	0	0	0
1.07	0	0	0	1.26698	0	-0.225347	0	0	0	0	0	0	0.176503	0	-0.345947	0	0	0
1.075	0	0	0	1.27261	0	-0.223837	0	0	0	0	0	0	0.167499	0	-0.342908	0	0	0
1.08	0	0	0	1.27611	0	-0.222469	0	0	0	0	0	0	0.159263	0	-0.340258	0	0	0
1.085	0	0	0	1.27758	0	-0.221634	0	0	0	0	0	0	0.151932	0	-0.338024	0	0	0
1.09	0	0	0	1.27723	0	-0.221196	0	0	0	0	0	0	0.145043	0	-0.33612	0	0	0
1.095	0	0	0	1.27518	0	-0.221092	0	0	0	0	0	0	0.141184	0	-0.335143	0	0	0
1.1	0	0	0	1.27136	0	-0.221241	0	0	0	0	0	0	0.137689	0	-0.33435	0	0	0
1.105	0	0	0	1.26563	0	-0.221698	0	0	0	0	0	0	0.136543	0	-0.334936	0	0	0
1.11	0	0	0	1.25836	0	-0.222356	0	0	0	0	0	0	0.137352	0	-0.335486	0	0	0
1.115	0	0	0	1.24901	0	-0.222806	0	0	0	0	0	0	0.138464	0	-0.336932	0	0	0
1.12	0	0	0	1.23847	0	-0.224418	0	0	0	0	0	0	0.141704	0	-0.339002	0	0	0
1.125	0	0	0	1.22637	0	-0.226217	0	0	0	0	0	0	0.146329	0	-0.340579	0	0	0
1.13	0	0	0	1.21312	0	-0.228617	0	0	0	0	0	0	0.152424	0	-0.342911	0	0	0
1.135	0	0	0	1.19849	0	-0.231293	0	0	0	0	0	0	0.159909	0	-0.345524	0	0	0
1.14	-48.9254	47.2513	-26.083	1.18281	0	-0.234593	0	-3.64171	0	0	0	0	0.169052	0	-0.348252	0	0	0
1.145	-84.4941	165.862	-45.3987	1.13347	0	-0.230027	0	-3.28542	0	0	0	0	0.177667	0	-0.351541	0	0	0
1.15	-122.349	352.104	-67.7382	1.08204	0	-0.230735	0	-3.22906	0	0	0	0	0.188397	0	-0.354691	0	0	0
1.155	-149.392	596.081	-88.8102	1.05482	0	-0.240511	0	-5.55606	0	0	0	0	0.199567	0	-0.356897	0	0	0
1.16	-155.846	880.968	-99.8941	1.02927	0	-0.248652	0	-8.58022	0	0	0	0	0.211521	0	-0.359585	0	0	0
1.165	-146.491	1183.01	-92.456	1.00628	0	-0.254853	0	-7.93143	0	0	0	0	0.224218	0	-0.362357	0	0	0
1.17	-144.087	1462.45	-66.6922	0.986913	0	-0.259103	0	-2.44928	0	0	0	0	0.23753	0	-0.364948	0	0	0
1.175	-173.79	1675.12	-31.6077	0.972042	0	-0.261665	0	4.94586	0	0	0	0	0.251367	0	-0.367419	0	0	0
1.18	-238.275	1804.56	5.03781	0.962843	0	-0.262682	0	10.9003	0	0	0	0	0.265603	0	-0.36985	0	0	0
1.185	-316.997	1878.57	41.6268	0.958422	0	-0.262347	0	13.6123	0	0	0	0	0.280282	0	-0.372771	0	0	0
1.19	-384.937	1942.11	76.7934	0.955566	0	-0.260827	0	12.1976	0	0	0	0	0.295645	0	-0.374488	0	0	0
1.195	-425.322	2023.03	101.94	0.951654	0	-0.258626	0	5.72006	0	0	0	0	0.311296	0	-0.375806	0	0	0
1.2	-435.136	2121.7	104.811	0.943875	0	-0.256411	0	-4.59011	0	0	0	0	0.327352	0	-0.377277	0	0	0
1.205	-418.675	2221.3	75.853	0.929845	0	-0.255003	0	-13.8058	0	0	0	0	0.343744	0	-0.378554	0	0	0
1.21	-380.468	2304.19	18.7326	0.90988	0	-0.25461	0	-16.0233	0	0	0	0	0.360951	0	-0.379315	0	0	0
1.215	-328.466	2364.06	-51.9565	0.885678	0	-0.255056	0	-8.67093	0	0	0	0	0.378618	0	-0.380239	0	0	0
1.22	-271.074	2407.88	-115.084	0.860055	0	-0.255716	0	2.96579	0	0	0	0	0.397178	0	-0.380904	0	0	0
1.225	-210.361	2444.28	-154.078	0.835609	0	-0.256131	0	10.6196	0	0	0	0	0.416287	0	-0.380956	0	0	0
1.23	-146.804	2470.5	-165.721	0.81212	0	-0.256285	0	12.8551	0	0	0	0	0.436234	0	-0.381086	0	0	0
1.235	-83.5104	2477.98	-156.174	0.788966	0	-0.256397	0	12.8672	0	0	0	0	0.456664	0	-0.380053	0	0	0
1.24	-25.6922	2466.24	-133.522	0.767282	0	-0.256562	0	13.2179	0	0	0	0	0.477792	0	-0.380639	0	0	0
1.245	23.5509	2442.06	-104.149	0.748088	0	-0.25682	0	14.2209	0	0	0	0	0.499587	0	-0.381055	0	0	0
1.25	68.4017	2407.3	-70.6334	0.731049	0	-0.257007	0	12.2805	0	0	0	0	0.521912	0	-0.379973	0	0	0
1.255	113.499	2357.28	-35.2309	0.714574	0	-0.257098	0	4.66526	0	0	0	0	0.544991	0	-0.379051	0	0	0
1.26	159.827	2286.19	-0.612241	0.697269	0	-0.257005	0	-7.18982	0	0	0	0	0.567555	0	-0.3761	0	0	0
1.265	206.779	2193.15	28.4556	0.67931	0	-0.256809	0	-19.794	0	0	0	0	0.591468	0	-0.37366	0	0	0
1.27	252.793	2080.54	44.9156	0.661347	0	-0.256687	0	-28.1339	0	0	0	0	0.619576	0	-0.374753	0	0	0
1.275	295.476	1948.66	40.8606	0.643273	0	-0.256886	0	-26.0076	0	0	0	0	0.644831	0	-0.373245	0	0	0
1.28	330.745	1794.14	12.849	0.62225	0	-0.257623	0	-10.2937	0	0	0	0	0.671587	0	-0.371483	0	0	0
1.285	357.91	1616.65	-30.8148	0.5943	0	-0.258998	0	14.6159	0	0	0	0	0.698985	0	-0.370279	0	0	0
1.29	380.297	1423.27	-68.5921	0.556832	0	-0.26054	0	37.6505	0	0	0	0	0.726286	0	-0.368187	0	0	0
1.295	396.229	1225.52	-77.0678	0.509972	0	-0.261206	0	45.1713	0	0	0	0	0.753714	0	-0.366401	0	0	0
1.3	397.663	1033.94	-45.4426	0.459481	0	-0.259617	0	25.4804	0	0	0	0	0.781671	0	-0.364352	0	0	0
1.305	374.564	856.303	13.7624	0.41616	0	-0.254827	0	-17.3966	0	0	0	0	0.809573	0	-0.36229	0	0	0
1.31	326.259	696.461	67.4953	0.390198	0	-0.248059	0	-57.3789	0	0	0	0	0.83749	0	-0.360496	0	0	0
1.315	266.129	554.418	83.4475	0.385676	0	-0.242998	0	-65.6517	0	0	0	0	0.865376	0	-0.359276	0	0	0
1.32	209.473	427.625	55.4588	0.395846	0	-0.243565	0	-38.3686	0	0	0	0	0.893273	0	-0.358398	0	0	0
1.325	163.838	311.36	9.46512	0.408793	0	-0.248408	0	-1.29053	0	0	0	0	0.921107	0	-0.357974	0	0	0
1.33	126.366	203.513	-20.8307	0.410123	-0	-0.251205	0	17.9593	0	0	0	0	0.948686	0	-0.357879	0	0	0
1.335	92.1379	110.469	-21.5191	0.345266	0	-0.243862	0	13.9699	0	0	0	0	0.976522	0	-0.358447	0	0	0
1.34	61.1837	44.2615	-4.02513	0.328756	0	-0.242238	0	0.328023	0	0	0	0	1.00454	0	-0.358837	0	0	0
1.345	0	0	0	0.313048	0	-0.240187	0	0	0	0	0	0	1.03113	0	-0.35975	0	0	0
1.35	0	0	0	0.297728	0	-0.237587	0	0	0	0	0	0	1.05776	0	-0.361673	0	0	0
1.355	0	0	0	0.282312	0	-0.234299	0	0	0	0	0	0	1.08343	0	-0.364238	0	0	0
1.36	0	0	0	0.266537	0	-0.230561	0	0	0	0	0	0	1.10831	0	-0.366723	0	0	0
1.365	0	0	0	0.253008	0	-0.22571	0	0	0	0	0	0	1.1325	0	-0.369923	0	0	0
1.37	0	0	0	0.239069	0	-0.222313	0	0	0	0	0	0	1.15537	0	-0.373775	0	0	0
1.375	0	0	0	0.222681	0	-0.219359	0	0	0	0	0	0	1.17664	0	-0.378149	0	0	0
1.38	0	0	0	0.206406	0	-0.21854	0	0	0	0	0	0	1.19611	0	-0.382654	0	0	0
1.385	0	0	0	0.193196	0	-0.216371	0	0	0	0	0	0	1.21312	0	-0.387156	0	0	0
1.39	0	0	0	0.182439	0	-0.214435	0	0	0	0	0	0	1.22783	0	-0.391317	0	0	0
1.395	0	0	0	0.172829	0	-0.212736	0	0	0	0	0	0	1.23985	0	-0.395835	0	0	0
1.4	0	0	0	0.163609	0	-0.211567	0	0	0	0	0	0	1.2499	0	-0.398758	0	0	0
1.405	0	0	0	0.153266	0	-0.210718	0	0	0	0	0	0	1.25765	0	-0.40097	0	0	0
1.41	0	0	0	0.14774	0	-0.210356	0	0	0	0	0	0	1.26311	0	-0.402181	0	0	0
1.415	0	0	0	0.141381	0	-0.209762	0	0	0	0	0	0	1.2664	0	-0.402616	0	0	0
1.42	0	0	0	0.135833	0	-0.209786	0	0	0	0	0	0	1.26754	0	-0.402099	0	0	0
1.425	0	0	0	0.131155	0	-0.209514	0	0	0	0	0	0	1.26666	0	-0.399837	0	0	0
1.43	0	0	0	0.127683	0	-0.209418	0	0	0	0	0	0	1.26422	0	-0.39701	0	0	0
1.435	0	0	0	0.125351	0	-0.209904	0	0	0	0	0	0	1.26011	0	-0.393572	0	0	0
1.44	0	0	0	0.124552	0	-0.210002	0	0	0	0	0	0	1.25433	0	-0.389495	0	0	0
1.445	0	0	0	0.12364	0	-0.21357	0	0	0	0	0	0	1.24681	0	-0.385041	0	0	0
1.45	0	0	0	0.125513	0	-0.214317	0	0	0	0	0	0	1.23768	0	-0.380311	0	0	0
1.455	0	0	0	0.129421	0	-0.21489	0	0	0	0	0	0	1.22693	0	-0.375293	0	0	0
1.46	0	0	0	0.134823	0	-0.215586	0	0	0	0	0	0	1.21454	0	-0.370024	0	0	0
1.465	0	0	0	0.141804	0	-0.216161	0	0	0	0	0	0	1.20081	0	-0.364612	0	0	0
1.47	0	0	0	0.149482	0	-0.216664	0	0	0	-42.0236	38.7435	-4.57613	1.18592	0	-0.358888	0	-5.33692	0
1.475	0	0	0	0.159512	0	-0.217059	0	0	0	-75.5818	148.982	10.5557	1.12321	-0	-0.370763	0	-0.607057	0
1.48	0	0	0	0.169907	0	-0.217006	0	0	0	-113.522	325.247	40.7534	1.0452	0	-0.382294	0	1.80086	0
1.485	0	0	0	0.181341	0	-0.216283	0	0	0	-143.492	554.807	84.1463	1.02907	0	-0.369153	0	3.01186	0
1.49	0	0	0	0.193926	0	-0.215337	0	0	0	-155.302	802.723	128.124	1.01597	0	-0.359272	0	3.47196	0
1.495	0	0	0	0.212403	0	-0.215526	0	0	0	-155.537	1043.12	148.217	1.00138	0	-0.352024	0	0.224816	0
1.5	0	0	0	0.221896	0	-0.214598	0	0	0	-167.362	1264.19	123.011	0.982876	0	-0.347285	0	-7.7554	0
1.505	0	0	0	0.236658	0	-0.213525	0	0	0	-199.86	1454.85	54.7868	0.964574	0	-0.344839	0	-13.8763	0
1.51	0	0	0	0.252374	0	-0.210825	0	0	0	-243.357	1608.12	-26.1659	0.950639	0	-0.343592	0	-10.8296	0
1.515	0	0	0	0.268417	0	-0.210086	0	0	0	-288.943	1731.15	-86.6933	0.939502	0	-0.342993	0	0.475941	0
1.52	0	0	0	0.285183	0	-0.209585	0	0	0	-328.839	1837.62	-107.118	0.928031	0	-0.342519	0	11.8706	0
1.525	0	0	0	0.302595	0	-0.20916	0	0	0	-352.124	1941.56	-86.2209	0.915386	0	-0.341822	0	15.9204	0
1.53	0	0	0	0.320544	0	-0.208692	0	0	0	-354.65	2053.02	-36.3009	0.901105	0	-0.340929	0	12.1617	0
1.535	0	0	0	0.339186	0	-0.208122	0	0	0	-342.851	2170.91	25.616	0.8856	0	-0.340124	0	5.93317	0
1.54	0	0	0	0.358265	0	-0.207693	0	0	0	-324.271	2281.81	83.4177	0.87084	0	-0.339736	0	1.99292	0
1.545	0	0	0	0.377934	0	-0.206897	0	0	0	-304.251	2371.45	126.986	0.856709	0	-0.339701	0	-0.398077	0
1.55	0	0	0	0.398481	0	-0.206836	0	0	0	-280.202	2432.48	150.839	0.841028	0	-0.339918	0	-5.07493	0
1.555	0	0	0	0.419037	0	-0.206856	0	0	0	-242.545	2466.11	154.178	0.821713	0	-0.340371	0	-11.7812	0
1.56	0	0	0	0.43999	0	-0.206509	0	0	0	-188.409	2482.97	141.25	0.798867	0	-0.341023	0	-14.4081	0
1.565	0	0	0	0.461422	0	-0.206101	0	0	0	-124.641	2493.04	119.77	0.775464	0	-0.341597	0	-8.1598	0
1.57	0	0	0	0.483296	0	-0.20573	0	0	0	-61.0639	2494.62	95.4325	0.753082	0	-0.342023	0	2.85641	0
1.575	0	0	0	0.505644	0	-0.204998	0	0	0	-2.20123	2481.45	70.6931	0.731308	0	-0.34226	0	9.65348	0
1.58	0	0	0	0.528739	0	-0.204231	0	0	0	54.3597	2452.14	45.9939	0.710224	0	-0.342262	0	10.4142	0
1.585	0	0	0	0.552138	0	-0.203753	0	0	0	110.527	2408.56	23.584	0.690107	0	-0.342034	0	11.711	0
1.59	0	0	0	0.576199	0	-0.203031	0	0	0	164.538	2352.52	8.85106	0.6718	0	-0.341502	0	17.5955	0
1.595	0	0	0	0.600943	0	-0.202648	0	0	0	212.672	2283.46	6.36843	0.656193	0	-0.340425	0	23.3915	0
1.6	0	0	0	0.626003	0	-0.202497	0	0	0	252.149	2198.7	15.7625	0.642896	0	-0.338611	0	19.8991	0
1.605	0	0	0	0.651703	0	-0.202426	0	0	0	283.767	2094.56	32.1481	0.630487	0	-0.336238	0	2.9073	0
1.61	0	0	0	0.677883	0	-0.2024	0	0	0	310.223	1967.74	48.649	0.617028	0	-0.333827	0	-19.8964	0
1.615	0	0	0	0.704903	0	-0.202133	0	0	0	334.906	1815.5	57.0286	0.599825	0	-0.332107	0	-34.7705	0
1.62	0	0	0	0.731609	0	-0.202103	0	0	0	361.306	1637.29	47.8303	0.575146	0	-0.331982	0	-32.6518	0
1.625	0	0	0	0.758599	0	-0.202495	0	0	0	390.748	1436.94	16.9756	0.53907	0	-0.333973	0	-13.4246	0
1.63	0	0	0	0.785475	0	-0.202828	0	0	0	419.701	1223.8	-29.4365	0.489507	0	-0.337984	0	16.9053	0
1.635	0	0	0	0.812558	0	-0.203099	0	0	0	437.944	1013.35	-74.7385	0.430783	0	-0.34293	0	47.8398	0
1.64	0	0	0	0.839724	0	-0.203181	0	0	0	432.943	820.763	-99.3993	0.379338	0	-0.346532	0	65.5075	0
1.645	0	0	0	0.866821	0	-0.203754	0	0	0	395.951	648.788	-94.2137	0.354099	0	-0.34635	0	60.2442	0
1.65	0	0	0	0.894144	0	-0.203568	0	0	0	330.045	487.431	-66.9362	0.355273	0	-0.342962	0	36.5032	0
1.655	0	0	0	0.920964	0	-0.204481	0	0	0	251.811	328.64	-35.2921	0.36126	0	-0.339484	0	9.83949	0
1.66	0	0	0	0.947679	0	-0.205138	0	0	0	179.553	185.584	-13.785	0.359413	-0	-0.337525	0	-7.9625	0
1.665	0	0	0	0.974172	0	-0.205733	0	0	0	121.687	79.7779	-5.34837	0.347712	0	-0.335826	0	-15.4761	0
